<svg width="376" height="376" viewBox="0 0 376 376" fill="none" xmlns="http://www.w3.org/2000/svg">
<g clip-path="url(#clip0_705_2153)">
<path d="M323.047 132.383C306.597 60.0032 243.46 27.4165 188 27.4165C188 27.4165 188 27.4165 187.843 27.4165C132.54 27.4165 69.2467 59.8465 52.7967 132.227C34.4667 213.067 83.9734 281.53 128.78 324.613C145.387 340.593 166.693 348.583 188 348.583C209.307 348.583 230.613 340.593 247.063 324.613C291.87 281.53 341.377 213.223 323.047 132.383ZM188 210.873C160.74 210.873 138.65 188.783 138.65 161.523C138.65 134.263 160.74 112.173 188 112.173C215.26 112.173 237.35 134.263 237.35 161.523C237.35 188.783 215.26 210.873 188 210.873Z" fill="#F70113"/>
</g>
<defs>
<clipPath id="clip0_705_2153">
<rect width="376" height="376" fill="white"/>
</clipPath>
</defs>
</svg>
